<?xml version="1.0" encoding="iso-8859-1"?>
<!-- Generator: Adobe Illustrator 19.0.0, SVG Export Plug-In . SVG Version: 6.00 Build 0)  -->
<svg version="1.1" id="Capa_1" xmlns="http://www.w3.org/2000/svg" xmlns:xlink="http://www.w3.org/1999/xlink" x="0px" y="0px"
	 viewBox="0 0 512 512" style="enable-background:new 0 0 512 512;" xml:space="preserve">
<path style="fill:#F18290;" d="M479.07,512H120.253c-15.405,0-27.893-12.488-27.893-27.893V27.893C92.36,12.488,104.848,0,120.253,0
	H479.07c15.405,0,27.893,12.488,27.893,27.893v456.214C506.963,499.512,494.475,512,479.07,512z"/>
<path style="opacity:0.15;enable-background:new    ;" d="M479.07,512H120.253c-15.405,0-27.893-12.488-27.893-27.893V27.893
	C92.36,12.488,104.848,0,120.253,0H479.07c15.405,0,27.893,12.488,27.893,27.893v456.214C506.963,499.512,494.475,512,479.07,512z"
	/>
<path style="fill:#F8D9B9;" d="M454.168,471.212H116.926V40.788h337.242c6.243,0,11.304,5.061,11.304,11.304v407.816
	C465.472,466.151,460.411,471.212,454.168,471.212z"/>
<path style="fill:#F18290;" d="M391.747,512H32.93c-15.405,0-27.893-12.488-27.893-27.893V27.893C5.037,12.488,17.525,0,32.93,0
	h358.818c15.405,0,27.893,12.488,27.893,27.893v456.214C419.64,499.512,407.152,512,391.747,512z"/>
<path style="fill:#5D6671;" d="M63,0H32.93C17.525,0,5.037,12.488,5.037,27.893v456.214C5.037,499.512,17.525,512,32.93,512H63V0z"
	/>
<path style="fill:#FFFFFF;" d="M305.727,149.029c-4.926-0.391-9.705-0.027-14.244,0.979c-4.203,0.932-8.623-0.691-11.129-4.192
	c-8.702-12.162-22.939-20.092-39.034-20.092c-16.096,0-30.332,7.93-39.034,20.092c-2.505,3.501-6.925,5.124-11.129,4.192
	c-4.538-1.006-9.316-1.369-14.24-0.979c-23.565,1.869-42.501,21.078-44.012,44.669c-1.634,25.511,16.68,47.084,40.854,50.632
	c4.03,0.592,7.027,4.028,7.027,8.102v67.259c0,4.286,3.475,7.761,7.761,7.761h105.547c4.286,0,7.761-3.475,7.761-7.761V252.43
	c0-4.074,2.996-7.51,7.027-8.102c24.172-3.547,42.486-25.119,40.854-50.627C348.227,170.111,329.292,150.899,305.727,149.029z"/>
<rect x="180.79" y="286.96" style="fill:#D6D8DB;" width="121.07" height="15"/>
<path style="fill:#F8D662;" d="M351.44,79.224l-25.454-11.81c-3.254-1.51-7.007-1.51-10.261,0l-25.454,11.81
	c-6.009,2.788-12.882-1.6-12.882-8.224V0h86.933v71C364.322,77.624,357.449,82.012,351.44,79.224z"/>
<rect x="431.42" y="40.788" style="opacity:0.1;enable-background:new    ;" width="15" height="430.43"/>
<g>
	<ellipse style="fill:#FFFFFF;" cx="162.48" cy="414.28" rx="29.09" ry="23.17"/>
	<ellipse style="fill:#FFFFFF;" cx="320.16" cy="414.28" rx="29.09" ry="23.17"/>
</g>
<g>
	<path style="fill:#5D6671;" d="M193.281,396.57c-4.142,0-7.5-3.358-7.5-7.5c0-3.5-2.847-6.346-6.346-6.346
		s-6.347,2.847-6.347,6.346c0,4.142-3.358,7.5-7.5,7.5s-7.5-3.358-7.5-7.5c0-11.771,9.576-21.346,21.347-21.346
		s21.346,9.576,21.346,21.346C200.781,393.212,197.423,396.57,193.281,396.57z"/>
	<path style="fill:#5D6671;" d="M317.052,396.57c-4.142,0-7.5-3.358-7.5-7.5c0-3.5-2.847-6.346-6.346-6.346
		c-3.5,0-6.347,2.847-6.347,6.346c0,4.142-3.358,7.5-7.5,7.5s-7.5-3.358-7.5-7.5c0-11.771,9.576-21.346,21.347-21.346
		c11.77,0,21.346,9.576,21.346,21.346C324.552,393.212,321.194,396.57,317.052,396.57z"/>
	<path style="fill:#5D6671;" d="M241.32,419.445c-7.796,0-15.21-3.376-20.341-9.264c-2.722-3.123-2.396-7.86,0.726-10.582
		c3.122-2.722,7.86-2.397,10.581,0.726c2.282,2.618,5.574,4.119,9.034,4.119c3.46,0,6.752-1.501,9.034-4.119
		c2.721-3.123,7.458-3.448,10.582-0.726c3.123,2.721,3.448,7.459,0.726,10.582C256.531,416.068,249.117,419.445,241.32,419.445z"/>
</g>
<path style="opacity:0.1;enable-background:new    ;" d="M32.93,0C17.525,0,5.037,12.488,5.037,27.893v456.214
	C5.037,499.512,17.525,512,32.93,512h178.371C92.913,445.658,126.278,83.199,130.516,0H32.93z"/>
<path style="fill:#7CD9D2;" d="M455.172,164.022H419.64V87.423h35.532c11.377,0,20.6,9.223,20.6,20.6v35.399
	C475.772,154.799,466.549,164.022,455.172,164.022z"/>
<path style="opacity:0.15;enable-background:new    ;" d="M438.403,87.423H419.64v76.599h32.353
	C435.698,140.607,438.687,106.35,438.403,87.423z"/>
<path id="SVGCleanerId_0" style="fill:#C3E9F1;" d="M455.172,273.585H419.64v-76.599h35.532c11.377,0,20.6,9.223,20.6,20.6v35.399
	C475.772,264.362,466.549,273.585,455.172,273.585z"/>
<g>
	<path id="SVGCleanerId_0_1_" style="fill:#C3E9F1;" d="M455.172,273.585H419.64v-76.599h35.532c11.377,0,20.6,9.223,20.6,20.6
		v35.399C475.772,264.362,466.549,273.585,455.172,273.585z"/>
</g>
<path style="opacity:0.15;enable-background:new    ;" d="M438.403,196.986H419.64v76.599h32.353
	C435.698,250.17,438.687,215.913,438.403,196.986z"/>
<g>
</g>
<g>
</g>
<g>
</g>
<g>
</g>
<g>
</g>
<g>
</g>
<g>
</g>
<g>
</g>
<g>
</g>
<g>
</g>
<g>
</g>
<g>
</g>
<g>
</g>
<g>
</g>
<g>
</g>
</svg>
